<svg xmlns="http://www.w3.org/2000/svg" version="1.1" xmlns:xlink="http://www.w3.org/1999/xlink" xmlns:svgjs="http://svgjs.dev/svgjs" width="128" height="128" viewBox="0 0 128 128"><g transform="matrix(0.4660633484162896,0,0,0.4660633484162896,34.00990836306279,12.760752631578946)"><svg viewBox="0 0 55 95" data-background-color="#6a2055" preserveAspectRatio="xMidYMid meet" height="221" width="128" xmlns="http://www.w3.org/2000/svg" xmlns:xlink="http://www.w3.org/1999/xlink"><g id="tight-bounds" transform="matrix(1,0,0,1,0.14939046169385506,-0.24049999999999727)"><svg viewBox="0 0 54.70121907661228 95.481" height="95.481" width="54.70121907661228"><g><svg viewBox="0 0 54.70121907661228 95.481" height="95.481" width="54.70121907661228"><g><svg viewBox="0 0 54.70121907661228 95.481" height="95.481" width="54.70121907661228"><g id="textblocktransform"><svg viewBox="0 0 54.70121907661228 95.481" height="95.481" width="54.70121907661228" id="textblock"><g><svg viewBox="0 0 54.70121907661228 95.481" height="95.481" width="54.70121907661228"><g><svg viewBox="0 0 54.70121907661228 95.481" height="95.481" width="54.70121907661228"><g><svg xmlns="http://www.w3.org/2000/svg" xmlns:xlink="http://www.w3.org/1999/xlink" version="1.1" x="0" y="0" viewBox="29.581 14.359 40.837 71.281" enable-background="new 0 0 100 100" xml:space="preserve" height="95.481" width="54.70121907661228" class="icon-icon-0" data-fill-palette-color="accent" id="icon-0"><g fill="#f4e2de" data-fill-palette-color="accent"><path fill-rule="evenodd" clip-rule="evenodd" d="M30.359 14.359c-0.417 0-0.778 0.393-0.778 0.814v16.389c0 5.725 2.614 9.625 6.37 12.432 3.505 2.61 8.012 4.322 12.519 6.005-4.507 1.684-9.014 3.396-12.519 6.006-3.756 2.806-6.37 6.707-6.37 12.432v16.39c0 0.421 0.361 0.813 0.778 0.813 0.418 0 0.807-0.393 0.779-0.813v-4.21h37.695v4.21c0 0.421 0.361 0.813 0.778 0.813s0.807-0.393 0.807-0.813V68.213c0 0 0 0 0-0.027-0.167-5.865-2.865-9.907-6.704-12.77-3.061-2.301-6.844-3.929-10.738-5.416 3.895-1.487 7.678-3.115 10.738-5.416 3.839-2.863 6.537-6.904 6.704-12.769 0-0.028 0-0.028 0-0.028V15.173c0-0.421-0.39-0.814-0.807-0.814s-0.778 0.393-0.778 0.814v4.209H31.139v-4.209C31.166 14.752 30.777 14.359 30.359 14.359L30.359 14.359zM31.139 20.955h37.695v8.054H31.139V20.955L31.139 20.955zM31.139 30.58h37.695v1.179c-0.056 2.75-0.696 4.967-1.781 6.875 0 0 0 0-0.027 0H33.002c-1.168-1.936-1.863-4.209-1.863-7.072V30.58L31.139 30.58zM34.143 40.206h31.854c-0.891 1.15-1.976 2.189-3.228 3.115-3.255 2.47-7.595 4.182-12.046 5.837-0.222-0.084-0.444-0.168-0.667-0.252-4.868-1.796-9.681-3.592-13.158-6.174C35.84 41.946 34.922 41.132 34.143 40.206L34.143 40.206zM50.723 50.842c4.451 1.656 8.791 3.368 12.046 5.837 1.252 0.927 2.337 1.965 3.228 3.115H34.143c0.779-0.926 1.697-1.768 2.755-2.525 3.478-2.61 8.29-4.378 13.158-6.174C50.278 51.011 50.501 50.926 50.723 50.842L50.723 50.842zM67.053 61.366c1.085 1.908 1.726 4.125 1.781 6.875v1.179H31.139v-0.982c0-2.862 0.695-5.136 1.863-7.071h34.023C67.053 61.366 67.053 61.366 67.053 61.366L67.053 61.366zM31.139 70.991h37.695v8.055H31.139V70.991L31.139 70.991z" fill="#000000" data-fill-palette-color="accent"></path></g></svg></g></svg></g></svg></g></svg></g></svg></g></svg></g><defs></defs></svg><rect width="54.70121907661228" height="95.481" fill="none" stroke="none" visibility="hidden"></rect></g></svg></g></svg>