<svg xmlns="http://www.w3.org/2000/svg" version="1.1" xmlns:xlink="http://www.w3.org/1999/xlink" xmlns:svgjs="http://svgjs.dev/svgjs" width="2000" height="1500" viewBox="0 0 2000 1500"><rect width="2000" height="1500" fill="#ffffff"></rect><g transform="matrix(0.75,0,0,0.75,249.0914400956815,489.1174447206264)"><svg viewBox="0 0 396 138" data-background-color="#6a2055" preserveAspectRatio="xMidYMid meet" height="696" width="2000" xmlns="http://www.w3.org/2000/svg" xmlns:xlink="http://www.w3.org/1999/xlink"><g id="tight-bounds" transform="matrix(1,0,0,1,0.23985981474010032,-0.031048604303521188)"><svg viewBox="0 0 395.52 138.06181683808722" height="138.06181683808722" width="395.52"><g><svg viewBox="0 0 656.7463139647812 229.24653445513388" height="138.06181683808722" width="395.52"><g transform="matrix(1,0,0,1,0,45.09845644891455)"><svg viewBox="0 0 395.52 139.0496215573048" height="139.0496215573048" width="395.52"><g id="textblocktransform"><svg viewBox="0 0 395.52 139.0496215573048" height="139.0496215573048" width="395.52" id="textblock"><g><svg viewBox="0 0 395.52 81.20138165896375" height="81.20138165896375" width="395.52"><g transform="matrix(1,0,0,1,0,0)"><svg width="395.52" viewBox="-1.4500000000000002 -38.55 206.54 43.199999999999996" height="81.20138165896375" data-palette-color="#f4e2de"><path d="M31.05-33.15L30.35-29.3Q28.15-29.75 25.68-30.15 23.2-30.55 19.95-30.65L19.95-30.65Q16.65-30.6 14.25-29.65 11.85-28.7 10.33-26.93 8.8-25.15 8.05-22.7 7.3-20.25 7.3-17.3L7.3-17.3Q7.3-13.5 8.28-10.8 9.25-8.1 10.98-6.38 12.7-4.65 15-3.85 17.3-3.05 19.95-3.05L19.95-3.05Q21.65-3.05 23.03-3.25 24.4-3.45 25.43-3.73 26.45-4 27.3-4.35L27.3-4.35 27.3-13.5 21.05-13.5 21.05-17.25 31.55-17.25 31.55-2.3Q29.8-1.15 26.73-0.23 23.65 0.7 19.95 0.65L19.95 0.65Q16.55 0.65 13.43-0.15 10.3-0.95 7.88-2.98 5.45-5 4-8.5 2.55-12 2.55-17.35L2.55-17.35Q2.55-21.7 3.9-24.93 5.25-28.15 7.58-30.28 9.9-32.4 12.98-33.48 16.05-34.55 19.5-34.55L19.5-34.55Q21.75-34.55 23.85-34.33 25.95-34.1 27.7-33.83 29.45-33.55 31.05-33.15L31.05-33.15ZM56.05-3.95L56.8-0.6Q55.65-0.25 54.42 0 53.2 0.25 51.72 0.45 50.25 0.65 48.65 0.65L48.65 0.65Q46.15 0.65 44-0.05 41.85-0.75 40.25-2.3 38.65-3.85 37.72-6.33 36.8-8.8 36.8-12.4L36.8-12.4Q36.8-15.65 37.7-18.13 38.6-20.6 40.17-22.28 41.75-23.95 43.87-24.8 46-25.65 48.5-25.65L48.5-25.65Q50.95-25.65 52.75-24.7 54.55-23.75 55.72-22.13 56.9-20.5 57.47-18.32 58.05-16.15 58.05-13.75L58.05-13.75 57.3-11.55 41.15-11.55Q41.15-10 41.55-8.45 41.95-6.9 42.92-5.65 43.9-4.4 45.47-3.63 47.05-2.85 49.4-2.85L49.4-2.85Q50.9-2.85 52.15-3.03 53.4-3.2 54.32-3.43 55.25-3.65 56.05-3.95L56.05-3.95ZM41.3-14.75L53.9-14.75Q53.9-15.1 53.75-16.3 53.6-17.5 53.05-18.8 52.5-20.1 51.35-21.13 50.2-22.15 48.3-22.15L48.3-22.15Q46.2-22.15 44.85-21.28 43.5-20.4 42.7-19.2 41.9-18 41.6-16.75 41.3-15.5 41.3-14.75L41.3-14.75ZM63.55 0L63.55-20.15Q63.6-21.2 63.3-24.7L63.3-24.7 67-25.2 67.55-22Q69.05-23 70.52-23.75 72-24.5 73.55-25.08 75.1-25.65 76.55-25.65L76.55-25.65Q78.6-25.65 79.97-25.18 81.35-24.7 82.2-23.6 83.05-22.5 83.42-20.7 83.8-18.9 83.8-16.2L83.8-16.2 83.8 0 79.8 0 79.8-15.75Q79.8-17.25 79.75-18.43 79.7-19.6 79.32-20.43 78.95-21.25 78.17-21.7 77.4-22.15 76-22.15L76-22.15Q74.7-22.15 73.25-21.58 71.8-21 70.4-20.25 69-19.5 67.55-18.5L67.55-18.5 67.55 0 63.55 0ZM93.69-12.45L93.69-12.45Q93.69-7.6 95.87-5.23 98.04-2.85 101.74-2.85L101.74-2.85Q105.39-2.85 107.44-5.2 109.49-7.55 109.49-12.25L109.49-12.25Q109.49-17.25 107.32-19.7 105.14-22.15 101.39-22.15L101.39-22.15Q97.64-22.15 95.67-19.73 93.69-17.3 93.69-12.45ZM89.44-12.5L89.44-12.5Q89.44-16.3 90.64-18.82 91.84-21.35 93.69-22.88 95.54-24.4 97.67-25.03 99.79-25.65 101.69-25.65L101.69-25.65Q103.49-25.65 105.62-25.08 107.74-24.5 109.54-23.03 111.34-21.55 112.54-19.07 113.74-16.6 113.74-12.8L113.74-12.8Q113.74-8.85 112.52-6.25 111.29-3.65 109.44-2.13 107.59-0.6 105.44 0.03 103.29 0.65 101.44 0.65L101.44 0.65Q99.54 0.65 97.44 0.05 95.34-0.55 93.57-2.02 91.79-3.5 90.62-6.05 89.44-8.6 89.44-12.5ZM137.84-33.45L137.14-29.4Q135.94-29.7 134.64-29.95L134.64-29.95Q133.49-30.2 132.02-30.38 130.54-30.55 128.94-30.55L128.94-30.55Q125.24-30.55 123.64-29.43 122.04-28.3 122.04-25.95L122.04-25.95Q122.09-24.1 123.39-22.83 124.69-21.55 126.64-20.48 128.59-19.4 130.92-18.38 133.24-17.35 135.19-16.03 137.14-14.7 138.47-12.93 139.79-11.15 139.79-8.6L139.79-8.6Q139.79-5.65 138.52-3.85 137.24-2.05 135.29-1.05 133.34-0.05 131.02 0.3 128.69 0.65 126.59 0.65L126.59 0.65Q124.59 0.65 122.94 0.4 121.29 0.15 120.09-0.15L120.09-0.15Q118.69-0.5 117.54-0.95L117.54-0.95 118.54-5Q119.69-4.5 120.99-4.15L120.99-4.15Q122.14-3.85 123.57-3.6 124.99-3.35 126.59-3.35L126.59-3.35Q128.54-3.35 130.17-3.6 131.79-3.85 132.99-4.4 134.19-4.95 134.87-5.85 135.54-6.75 135.54-8.05L135.54-8.05Q135.49-10 134.27-11.23 133.04-12.45 131.02-13.58 128.99-14.7 126.67-15.75 124.34-16.8 122.39-18.15 120.44-19.5 119.12-21.35 117.79-23.2 117.79-25.95L117.79-25.95Q117.79-27.55 118.34-29.1 118.89-30.65 120.22-31.85 121.54-33.05 123.67-33.8 125.79-34.55 128.94-34.55L128.94-34.55Q130.74-34.55 132.37-34.38 133.99-34.2 135.19-34L135.19-34Q136.59-33.75 137.84-33.45L137.84-33.45ZM145.99 0L145.99-34.1 149.99-34.1 167.89-7.05 167.99-7.05Q167.89-8.5 167.84-10.15L167.84-10.15Q167.74-11.55 167.71-13.38 167.69-15.2 167.69-17.1L167.69-17.1 167.69-34.1 171.69-34.1 171.69 0 167.69 0 149.79-27.15 149.69-27.15Q149.74-25.65 149.84-24L149.84-24Q149.89-22.55 149.94-20.75 149.99-18.95 149.99-17.05L149.99-17.05 149.99 0 145.99 0ZM180.49 0L180.49-34.1 188.34-34.1Q194.84-34.1 197.96-31.8 201.09-29.5 201.09-24.05L201.09-24.05Q201.09-21.05 199.94-19.05 198.79-17.05 197.06-15.83 195.34-14.6 193.34-14.08 191.34-13.55 189.64-13.55L189.64-13.55 184.69-13.55 184.69 0 180.49 0ZM184.69-30.35L184.69-17.3 189.28-17.3Q190.99-17.3 192.36-17.63 193.74-17.95 194.74-18.73 195.74-19.5 196.29-20.83 196.84-22.15 196.84-24.15L196.84-24.15Q196.84-26.15 196.26-27.38 195.69-28.6 194.56-29.25 193.44-29.9 191.74-30.13 190.03-30.35 187.78-30.35L187.78-30.35 184.69-30.35Z" opacity="1" transform="matrix(1,0,0,1,0,0)" fill="#000000" class="wordmark-text-0" data-fill-palette-color="primary" id="text-0"></path></svg></g></svg></g><g transform="matrix(1,0,0,1,196.36174326490362,97.1912714137874)"><svg viewBox="0 0 199.15825673509636 41.858350143517384" height="41.858350143517384" width="199.15825673509636"><g transform="matrix(1,0,0,1,0,0)"><svg width="199.15825673509636" viewBox="-1.75 -39.18 240.34 51.31" height="41.858350143517384" data-palette-color="#f4e2de"><path d="M5.64-16.02L5.64 0 2.25 0 2.25-34.86 16.38-34.86 16.38-31.74 5.64-31.74 5.64-19.14 15.67-19.14 15.67-16.02 5.64-16.02ZM23.04-31.69L23.04-28.17 19.89-28.17 19.89-31.69 23.04-31.69ZM23.04-23.75L23.04 0 19.87 0 19.87-23.75 23.04-23.75ZM31.34-19.19L31.34 0 28.19 0 28.19-23.75 31.34-23.75 31.34-21.53 32.1-21.53Q32.86-22.75 34.09-23.41 35.32-24.07 37.2-24.07L37.2-24.07Q39.96-24.07 41.3-22.86 42.65-21.66 42.65-18.82L42.65-18.82 42.65 0 39.52 0 39.52-19.09Q39.52-20.31 38.75-20.86 37.98-21.41 36.27-21.41L36.27-21.41Q34.57-21.41 33.27-20.83 31.98-20.24 31.34-19.19L31.34-19.19ZM52.34 0.29L52.34 0.29Q49.58 0.29 48.23-0.93 46.89-2.15 46.82-4.96L46.82-4.96Q46.72-6.96 46.68-9.35 46.65-11.74 46.68-14.21 46.72-16.67 46.82-18.82L46.82-18.82Q46.89-21.66 48.27-22.86 49.65-24.07 52.39-24.07L52.39-24.07Q54.41-24.07 55.57-23.45 56.73-22.83 57.59-21.53L57.59-21.53 58.22-21.53 58.22-31.69 61.35-31.69 61.35 0 58.22 0 58.22-2.25 57.51-2.25Q56.68-1.03 55.52-0.37 54.36 0.29 52.34 0.29ZM53.24-2.37L53.24-2.37Q56.93-2.37 58.22-4.59L58.22-4.59 58.22-19.19Q56.95-21.41 53.26-21.41L53.26-21.41Q51.55-21.41 50.79-20.86 50.02-20.31 49.99-19.09L49.99-19.09Q49.85-15.43 49.87-11.66 49.89-7.89 49.99-4.69L49.99-4.69Q50.04-3.49 50.79-2.93 51.53-2.37 53.24-2.37ZM77.92 8.13L77.92 8.13Q77.14 8.13 76.05 8.06 74.96 7.98 74.26 7.91L74.26 7.91 74.26 5.2Q75.77 5.32 77.82 5.32L77.82 5.32Q79.99 5.32 80.76 4.8 81.53 4.27 81.8 2.95L81.8 2.95 82.51 0 79.21 0 74.82-23.75 78.04-23.75 79.68-12.43 81.55-2.71 83.04-2.71 85.05-12.43 86.78-23.75 90.03-23.75 84.9 2.71Q84.44 5.59 82.95 6.86 81.46 8.13 77.92 8.13ZM100.28 0.29L100.28 0.29Q96.3 0.29 94.66-1.07 93.03-2.44 92.9-5.62L92.9-5.62Q92.76-7.42 92.71-9.63 92.66-11.84 92.71-14.09 92.76-16.33 92.9-18.16L92.9-18.16Q93.03-21.34 94.67-22.71 96.32-24.07 100.28-24.07L100.28-24.07Q104.28-24.07 105.88-22.71 107.48-21.34 107.6-18.16L107.6-18.16Q107.75-16.36 107.8-14.15 107.85-11.94 107.8-9.7 107.75-7.47 107.6-5.62L107.6-5.62Q107.48-2.47 105.88-1.09 104.28 0.29 100.28 0.29ZM100.28-2.44L100.28-2.44Q102.52-2.44 103.48-2.99 104.43-3.54 104.5-4.81L104.5-4.81Q104.75-8.62 104.75-11.89 104.75-15.16 104.5-18.97L104.5-18.97Q104.43-20.26 103.5-20.8 102.57-21.34 100.28-21.34L100.28-21.34Q97.98-21.34 97.04-20.8 96.1-20.26 96.03-18.97L96.03-18.97Q95.81-15.16 95.8-11.88 95.79-8.59 96.03-4.81L96.03-4.81Q96.08-3.54 97.07-2.99 98.06-2.44 100.28-2.44ZM117.37 0.29L117.37 0.29Q114.63 0.29 113.25-0.93 111.87-2.15 111.87-4.96L111.87-4.96 111.87-23.75 115-23.75 115-4.69Q115-3.49 115.75-2.93 116.51-2.37 118.22-2.37L118.22-2.37Q119.95-2.37 121.26-2.95 122.57-3.54 123.18-4.59L123.18-4.59 123.18-23.75 126.35-23.75 126.35 0 123.18 0 123.18-2.25 122.52-2.25Q120.91 0.29 117.37 0.29ZM134.14-19.19L134.14 0 130.99 0 130.99-23.75 134.14-23.75 134.14-21.53 134.82-21.53Q135.45-22.75 136.5-23.41 137.55-24.07 139.12-24.07L139.12-24.07Q141.46-24.07 142.59-22.84 143.73-21.61 143.73-18.58L143.73-18.58Q143.73-17.92 143.68-17.02 143.63-16.11 143.53-15.41L143.53-15.41 140.51-15.41Q140.56-15.65 140.57-16.26 140.58-16.87 140.59-17.48 140.61-18.09 140.61-18.31L140.61-18.31Q140.61-20.12 139.99-20.76 139.38-21.41 138.04-21.41L138.04-21.41Q135.19-21.41 134.14-19.19L134.14-19.19ZM165.58 0.32L165.58 0.32Q160.99 0.32 158.93-1.14 156.88-2.59 156.76-5.93L156.76-5.93Q156.64-7.79 156.68-9.3 156.71-10.82 156.84-12.7L156.84-12.7 160.13-12.7Q159.98-10.82 160-8.96 160.01-7.1 160.13-5.37L160.13-5.37Q160.25-3.96 161.47-3.28 162.69-2.61 165.5-2.61L165.5-2.61Q168.26-2.61 169.42-3.28 170.58-3.96 170.73-5.37L170.73-5.37Q170.85-7.1 170.84-8.39 170.82-9.67 170.73-11.57L170.73-11.57Q170.63-13.09 169.93-14.11 169.24-15.14 166.85-15.45L166.85-15.45 163.35-16.09Q160.6-16.55 159.22-17.44 157.84-18.33 157.34-19.74 156.84-21.14 156.74-23.17L156.74-23.17Q156.66-24.51 156.69-26.04 156.71-27.56 156.79-29L156.79-29Q156.84-32.32 158.83-33.75 160.81-35.18 165.5-35.18L165.5-35.18Q169.82-35.18 171.79-33.74 173.75-32.3 173.88-28.98L173.88-28.98Q173.95-27.83 173.93-26.14 173.9-24.44 173.83-22.63L173.83-22.63 170.51-22.63Q170.68-24.37 170.68-26.1 170.68-27.83 170.56-29.54L170.56-29.54Q170.46-30.93 169.27-31.59 168.09-32.25 165.43-32.25L165.43-32.25Q162.67-32.25 161.49-31.59 160.3-30.93 160.18-29.54L160.18-29.54Q160.06-27.98 160.07-26.37 160.08-24.76 160.18-23.17L160.18-23.17Q160.28-21.39 160.95-20.45 161.62-19.51 164.14-19.21L164.14-19.21 167.55-18.68Q170.31-18.26 171.7-17.33 173.1-16.41 173.6-14.98 174.1-13.55 174.17-11.57L174.17-11.57Q174.29-9.77 174.27-8.64 174.24-7.52 174.12-5.93L174.12-5.93Q173.95-2.59 171.96-1.14 169.97 0.32 165.58 0.32ZM181.2-13.09L181.39 0 178.07 0 178.07-34.86 184.3-34.86 187.01-23.8 191.53-3.13 192.89-3.13 192.33-22.12 192.16-34.86 195.5-34.86 195.5 0 189.11 0 186.03-12.33 182.15-31.76 180.69-31.76 181.2-13.09ZM203.34-13.21L203.34 0 199.95 0 199.95-34.86 208.17-34.86Q212.59-34.86 214.62-33.45 216.64-32.03 216.86-28.76L216.86-28.76Q217.11-26.03 217.11-23.83 217.11-21.63 216.86-19.31L216.86-19.31Q216.64-16.06 214.61-14.64 212.57-13.21 208.08-13.21L208.08-13.21 203.34-13.21ZM208.17-31.74L203.34-31.74 203.34-16.33 208.08-16.33Q210.91-16.33 212.14-17.03 213.37-17.72 213.5-19.17L213.5-19.17Q213.86-24.02 213.5-28.93L213.5-28.93Q213.37-30.37 212.15-31.05 210.93-31.74 208.17-31.74L208.17-31.74ZM227.04 0.29L227.04 0.29Q223.11 0.29 221.59-0.98 220.06-2.25 219.94-5.13L219.94-5.13Q219.89-5.88 219.88-6.82 219.86-7.76 219.96-8.47L219.96-8.47 222.82-8.47Q222.77-7.35 222.78-6.41 222.79-5.47 222.82-4.81L222.82-4.81Q222.84-3.47 223.76-2.95 224.67-2.44 227.04-2.44L227.04-2.44Q229.46-2.44 230.45-2.95 231.44-3.47 231.51-4.81L231.51-4.81Q231.58-5.64 231.61-6.04 231.63-6.45 231.61-7.2L231.61-7.2Q231.53-8.45 230.95-9.13 230.36-9.81 228.41-10.11L228.41-10.11 225.55-10.77Q223.36-11.23 222.16-11.94 220.96-12.65 220.48-13.78 219.99-14.92 219.89-16.65L219.89-16.65Q219.82-17.53 220.01-18.58L220.01-18.58Q220.06-21.53 221.61-22.8 223.16-24.07 227.26-24.07L227.26-24.07Q231.19-24.07 232.72-22.83 234.24-21.58 234.39-18.73L234.39-18.73Q234.39-17.99 234.38-17.05 234.37-16.11 234.29-15.41L234.29-15.41 231.34-15.41Q231.46-16.26 231.45-17.36 231.44-18.46 231.39-19.07L231.39-19.07Q231.36-20.36 230.5-20.85 229.63-21.34 227.26-21.34L227.26-21.34Q224.87-21.34 224-20.85 223.14-20.36 223.04-19.07L223.04-19.07Q223.01-18.46 222.97-18.05 222.92-17.65 222.94-16.94L222.94-16.94Q223.01-16.09 223.2-15.43 223.38-14.77 224.03-14.34 224.67-13.92 226.14-13.7L226.14-13.7 228.87-13.13Q231.85-12.52 233.22-11.24 234.59-9.96 234.59-7.37L234.59-7.37Q234.59-6.84 234.57-6.23 234.56-5.62 234.51-5.05L234.51-5.05Q234.34-2.2 232.72-0.95 231.1 0.29 227.04 0.29Z" opacity="1" transform="matrix(1,0,0,1,0,0)" fill="#000000" class="slogan-text-1" data-fill-palette-color="secondary" id="text-1"></path></svg></g></svg></g></svg></g></svg></g><g transform="matrix(1,0,0,1,427.4997795096473,0)"><svg viewBox="0 0 229.24653445513388 229.24653445513388" height="229.24653445513388" width="229.24653445513388"><g><svg></svg></g><g id="icon-0"><svg viewBox="0 0 229.24653445513388 229.24653445513388" height="229.24653445513388" width="229.24653445513388"><g><path d="M0 114.623c0-63.305 51.319-114.623 114.623-114.623 63.305 0 114.623 51.319 114.624 114.623 0 63.305-51.319 114.623-114.624 114.624-63.305 0-114.623-51.319-114.623-114.624zM114.623 223.138c59.931 0 108.515-48.584 108.515-108.515 0-59.931-48.584-108.515-108.515-108.515-59.931 0-108.515 48.584-108.515 108.515 0 59.931 48.584 108.515 108.515 108.515z" data-fill-palette-color="accent" fill="#000000" stroke="transparent"></path><ellipse rx="113.47703455529127" ry="113.47703455529127" cx="114.62326722756694" cy="114.62326722756694" fill="#000000" stroke="transparent" stroke-width="0" fill-opacity="1" data-fill-palette-color="accent"></ellipse></g><g transform="matrix(1,0,0,1,75.61449355373776,46.533437018584465)"><svg viewBox="0 0 78.01754734765835 136.17966041796495" height="136.17966041796495" width="78.01754734765835"><g><svg xmlns="http://www.w3.org/2000/svg" xmlns:xlink="http://www.w3.org/1999/xlink" version="1.1" x="0" y="0" viewBox="29.581 14.359 40.837 71.281" enable-background="new 0 0 100 100" xml:space="preserve" height="136.17966041796495" width="78.01754734765835" class="icon-cg-0" data-fill-palette-color="quaternary" id="cg-0"><g fill="#6a2055" data-fill-palette-color="quaternary"><path fill-rule="evenodd" clip-rule="evenodd" d="M30.359 14.359c-0.417 0-0.778 0.393-0.778 0.814v16.389c0 5.725 2.614 9.625 6.37 12.432 3.505 2.61 8.012 4.322 12.519 6.005-4.507 1.684-9.014 3.396-12.519 6.006-3.756 2.806-6.37 6.707-6.37 12.432v16.39c0 0.421 0.361 0.813 0.778 0.813 0.418 0 0.807-0.393 0.779-0.813v-4.21h37.695v4.21c0 0.421 0.361 0.813 0.778 0.813s0.807-0.393 0.807-0.813V68.213c0 0 0 0 0-0.027-0.167-5.865-2.865-9.907-6.704-12.77-3.061-2.301-6.844-3.929-10.738-5.416 3.895-1.487 7.678-3.115 10.738-5.416 3.839-2.863 6.537-6.904 6.704-12.769 0-0.028 0-0.028 0-0.028V15.173c0-0.421-0.39-0.814-0.807-0.814s-0.778 0.393-0.778 0.814v4.209H31.139v-4.209C31.166 14.752 30.777 14.359 30.359 14.359L30.359 14.359zM31.139 20.955h37.695v8.054H31.139V20.955L31.139 20.955zM31.139 30.58h37.695v1.179c-0.056 2.75-0.696 4.967-1.781 6.875 0 0 0 0-0.027 0H33.002c-1.168-1.936-1.863-4.209-1.863-7.072V30.58L31.139 30.58zM34.143 40.206h31.854c-0.891 1.15-1.976 2.189-3.228 3.115-3.255 2.47-7.595 4.182-12.046 5.837-0.222-0.084-0.444-0.168-0.667-0.252-4.868-1.796-9.681-3.592-13.158-6.174C35.84 41.946 34.922 41.132 34.143 40.206L34.143 40.206zM50.723 50.842c4.451 1.656 8.791 3.368 12.046 5.837 1.252 0.927 2.337 1.965 3.228 3.115H34.143c0.779-0.926 1.697-1.768 2.755-2.525 3.478-2.61 8.29-4.378 13.158-6.174C50.278 51.011 50.501 50.926 50.723 50.842L50.723 50.842zM67.053 61.366c1.085 1.908 1.726 4.125 1.781 6.875v1.179H31.139v-0.982c0-2.862 0.695-5.136 1.863-7.071h34.023C67.053 61.366 67.053 61.366 67.053 61.366L67.053 61.366zM31.139 70.991h37.695v8.055H31.139V70.991L31.139 70.991z" fill="#ffffff" data-fill-palette-color="quaternary"></path></g></svg></g></svg></g></svg></g></svg></g></svg></g><defs></defs></svg><rect width="395.52" height="138.06181683808722" fill="none" stroke="none" visibility="hidden"></rect></g></svg></g></svg>